<svg class="diagram-root" style="background: #f5f6f6" xmlns="http://www.w3.org/2000/svg" xmlns:xlink="http://www.w3.org/1999/xlink"><style>.diagram-root { font-family: "Helvetica Neue", sans-serif; font-size: 12px; } .t { overflow: visible; } .t-bg { y: 40; fill: #fff;   } .th { fill: #005aa0;   } .tht { fill: #fff; font-size: 14px;  } .tf { fill: #323c46; overflow: visible; } .tf.pk { fill: #005aa0; font-weight: bold; } .tf.fk { font-weight: bold; } .ty { fill: #adb1b5; font-weight: normal; text-anchor: end; } .r { fill: transparent; stroke: #c3c3c3; stroke-width: 1; } .l { stroke: 1; } .i { fill: #c2c7ce; stroke: #c2c7ce; } .i.ix { fill: #afb3b6; stroke: #000; } .fa { fill: transparent; overflow: visible; } .fa .bg.hover { fill: #f7f7f7; } .c { cy: 12; r: 4; stroke: #d2d2dc; fill: #d2d2dc; } .hr { fill: transparent; stroke: #323c46; stroke-opacity: 0.035; stroke-width: 13; } .dc { stroke: #fa5a3c; fill: #fa5a3c; } .x { stroke: white; stroke-width: 1; } .hl .th { fill: #1b9bff; } .hl .tht {  } .fhl .bg { fill: #e7f4ff; } .fhls .bg {  } .r.hl { stroke: #1b9bff; } .dim { opacity: 0.25; }</style><g class="drawing-wrapper" transform="translate(3.6666666666670054, 109.99999999999996) scale(1,1)"><g class="rs"><path d="M 18.33 425.33 m -1, 0 a 1,1 0 1,0 2,0 a 1,1 0 1,0 -2,0 M 18.33 425.33 m -0.5, 0 a 0.5,0.5 0 1,0 1,0 a 0.5,0.5 0 1,0 -1,0  M18.33 425.33 L18.33 425.33 6.329999999999998 425.33 M12.329999999999998 431.33 L12.329999999999998 431.33 12.329999999999998 419.33 M6.329999999999998 425.33 C -43.67 425.33, -50.672000000000004 87, 18 87 M 30 87 m -1, 0 a 1,1 0 1,0 2,0 a 1,1 0 1,0 -2,0 M 30 87 m -0.5, 0 a 0.5,0.5 0 1,0 1,0 a 0.5,0.5 0 1,0 -1,0  M30 87 L30 87 18 87 M24 93 L24 93 24 81" id="h1607168654" class="r"></path><path d="M 340 -23 m -1, 0 a 1,1 0 1,0 2,0 a 1,1 0 1,0 -2,0 M 340 -23 m -0.5, 0 a 0.5,0.5 0 1,0 1,0 a 0.5,0.5 0 1,0 -1,0  M340 -23 L340 -23 328 -23 M 340 -17 m -1, 0 a 1,1 0 1,0 2,0 a 1,1 0 1,0 -2,0 M 340 -17 m -0.5, 0 a 0.5,0.5 0 1,0 1,0 a 0.5,0.5 0 1,0 -1,0  M340 -17 L340 -17 333 -23 340 -29 M 340 -29 m -1, 0 a 1,1 0 1,0 2,0 a 1,1 0 1,0 -2,0 M 340 -29 m -0.5, 0 a 0.5,0.5 0 1,0 1,0 a 0.5,0.5 0 1,0 -1,0  M328 -23 Q 293.85 -23, 259.7 32 T 191.39 87 M 179.39 87 m -1, 0 a 1,1 0 1,0 2,0 a 1,1 0 1,0 -2,0 M 179.39 87 m -0.5, 0 a 0.5,0.5 0 1,0 1,0 a 0.5,0.5 0 1,0 -1,0  M179.39 87 L179.39 87 191.39 87 M185.39 93 L185.39 93 185.39 81" id="h1397587031" class="r"></path><path d="M 340 2 m -1, 0 a 1,1 0 1,0 2,0 a 1,1 0 1,0 -2,0 M 340 2 m -0.5, 0 a 0.5,0.5 0 1,0 1,0 a 0.5,0.5 0 1,0 -1,0  M340 2 L340 2 328 2 M 340 8 m -1, 0 a 1,1 0 1,0 2,0 a 1,1 0 1,0 -2,0 M 340 8 m -0.5, 0 a 0.5,0.5 0 1,0 1,0 a 0.5,0.5 0 1,0 -1,0  M340 8 L340 8 333 2 340 -4 M 340 -4 m -1, 0 a 1,1 0 1,0 2,0 a 1,1 0 1,0 -2,0 M 340 -4 m -0.5, 0 a 0.5,0.5 0 1,0 1,0 a 0.5,0.5 0 1,0 -1,0  M328 2 Q 290.1 2, 252.2 201.17 T 176.39 400.33 M 164.39 400.33 m -1, 0 a 1,1 0 1,0 2,0 a 1,1 0 1,0 -2,0 M 164.39 400.33 m -0.5, 0 a 0.5,0.5 0 1,0 1,0 a 0.5,0.5 0 1,0 -1,0  M164.39 400.33 L164.39 400.33 176.39 400.33 M170.39 406.33 L170.39 406.33 170.39 394.33" id="h1990908834" class="r"></path><path d="M 452.68 594.0799999999999 m -1, 0 a 1,1 0 1,0 2,0 a 1,1 0 1,0 -2,0 M 452.68 594.0799999999999 m -0.5, 0 a 0.5,0.5 0 1,0 1,0 a 0.5,0.5 0 1,0 -1,0  M452.68 594.0799999999999 L452.68 594.0799999999999 464.68 594.0799999999999 M458.68 600.0799999999999 L458.68 600.0799999999999 458.68 588.0799999999999 M464.68 594.0799999999999 C 786.7600000000001 594.0799999999999, 684.73 155.89, 634.73 155.89 M 622.73 155.89 m -1, 0 a 1,1 0 1,0 2,0 a 1,1 0 1,0 -2,0 M 622.73 155.89 m -0.5, 0 a 0.5,0.5 0 1,0 1,0 a 0.5,0.5 0 1,0 -1,0  M622.73 155.89 L622.73 155.89 634.73 155.89 M628.73 161.89 L628.73 161.89 628.73 149.89" id="h133127050" class="r"></path><path d="M 452.68 594.0799999999999 m -1, 0 a 1,1 0 1,0 2,0 a 1,1 0 1,0 -2,0 M 452.68 594.0799999999999 m -0.5, 0 a 0.5,0.5 0 1,0 1,0 a 0.5,0.5 0 1,0 -1,0  M452.68 594.0799999999999 L452.68 594.0799999999999 464.68 594.0799999999999 M458.68 600.0799999999999 L458.68 600.0799999999999 458.68 588.0799999999999 M464.68 594.0799999999999 C 844.8720000000001 594.0799999999999, 721.05 440.33, 671.05 440.33 M 659.05 440.33 m -1, 0 a 1,1 0 1,0 2,0 a 1,1 0 1,0 -2,0 M 659.05 440.33 m -0.5, 0 a 0.5,0.5 0 1,0 1,0 a 0.5,0.5 0 1,0 -1,0  M659.05 440.33 L659.05 440.33 671.05 440.33 M665.05 446.33 L665.05 446.33 665.05 434.33" id="h1615141195" class="r"></path><path d="M 285.28 419.08 m -1, 0 a 1,1 0 1,0 2,0 a 1,1 0 1,0 -2,0 M 285.28 419.08 m -0.5, 0 a 0.5,0.5 0 1,0 1,0 a 0.5,0.5 0 1,0 -1,0  M285.28 419.08 L285.28 419.08 273.28 419.08 M 285.28 425.08 m -1, 0 a 1,1 0 1,0 2,0 a 1,1 0 1,0 -2,0 M 285.28 425.08 m -0.5, 0 a 0.5,0.5 0 1,0 1,0 a 0.5,0.5 0 1,0 -1,0  M285.28 425.08 L285.28 425.08 278.28 419.08 285.28 413.08 M 285.28 413.08 m -1, 0 a 1,1 0 1,0 2,0 a 1,1 0 1,0 -2,0 M 285.28 413.08 m -0.5, 0 a 0.5,0.5 0 1,0 1,0 a 0.5,0.5 0 1,0 -1,0  M273.28 419.08 Q 249.06 419.08, 224.83 409.71 T 176.39 400.33 M 164.39 400.33 m -1, 0 a 1,1 0 1,0 2,0 a 1,1 0 1,0 -2,0 M 164.39 400.33 m -0.5, 0 a 0.5,0.5 0 1,0 1,0 a 0.5,0.5 0 1,0 -1,0  M164.39 400.33 L164.39 400.33 176.39 400.33 M170.39 406.33 L170.39 406.33 170.39 394.33" id="h211156328" class="r"></path><path d="M 496.67 105.89 m -1, 0 a 1,1 0 1,0 2,0 a 1,1 0 1,0 -2,0 M 496.67 105.89 m -0.5, 0 a 0.5,0.5 0 1,0 1,0 a 0.5,0.5 0 1,0 -1,0  M496.67 105.89 L496.67 105.89 484.67 105.89 M 496.67 111.89 m -1, 0 a 1,1 0 1,0 2,0 a 1,1 0 1,0 -2,0 M 496.67 111.89 m -0.5, 0 a 0.5,0.5 0 1,0 1,0 a 0.5,0.5 0 1,0 -1,0  M496.67 111.89 L496.67 111.89 489.67 105.89 496.67 99.89 M 496.67 99.89 m -1, 0 a 1,1 0 1,0 2,0 a 1,1 0 1,0 -2,0 M 496.67 99.89 m -0.5, 0 a 0.5,0.5 0 1,0 1,0 a 0.5,0.5 0 1,0 -1,0  M484.67 105.89 Q 407.6 105.89, 330.53 253.11 T 176.39 400.33 M 164.39 400.33 m -1, 0 a 1,1 0 1,0 2,0 a 1,1 0 1,0 -2,0 M 164.39 400.33 m -0.5, 0 a 0.5,0.5 0 1,0 1,0 a 0.5,0.5 0 1,0 -1,0  M164.39 400.33 L164.39 400.33 176.39 400.33 M170.39 406.33 L170.39 406.33 170.39 394.33" id="h1624525215" class="r"></path></g><g class="hrs"></g><g class="ts"><svg width="149.39" height="100" x="30" y="30" id="h475896179" class="t"><rect height="40" width="149.39" class="th"></rect><text x="13" y="25" class="tht">departments</text><rect height="60" width="149.39" class="t-bg" y="40"></rect><text x="13" y="61" class="tf pk">dept_no<tspan x="136.39" class="ty">varchar</tspan></text><path d="M7,14A2,2 0 0,1 5,12A2,2 0 0,1 7,10A2,2 0 0,1 9,12A2,2 0 0,1 7,14M12.65,10C11.83,7.67 9.61,6 7, 6A6, 6 0 0, 0 1, 12A6, 6 0 0, 0 7, 18C9.61, 18 11.83, 16.33 12.65, 14H17V18H21V14H23V10H12.65Z" class="i pk" transform="translate(76.37632812499999, 48) scale(0.65)"></path><text x="13" y="86" class="tf">dept_name<tspan x="136.39" class="ty">varchar</tspan></text></svg><svg width="146.06" height="100" x="18.33" y="343.33" id="h1090417462" class="t"><rect height="40" width="146.06" class="th"></rect><text x="13" y="25" class="tht">dept_emp</text><rect height="60" width="146.06" class="t-bg" y="40"></rect><text x="13" y="61" class="tf pk">emp_no<tspan x="133.06" class="ty">integer</tspan></text><path d="M7,14A2,2 0 0,1 5,12A2,2 0 0,1 7,10A2,2 0 0,1 9,12A2,2 0 0,1 7,14M12.65,10C11.83,7.67 9.61,6 7, 6A6, 6 0 0, 0 1, 12A6, 6 0 0, 0 7, 18C9.61, 18 11.83, 16.33 12.65, 14H17V18H21V14H23V10H12.65Z" class="i pk" transform="translate(76.36859375, 48) scale(0.65)"></path><text x="13" y="86" class="tf fk">dept_no<tspan x="133.06" class="ty">varchar</tspan></text></svg><svg width="129.39" height="100" x="340" y="-80" id="h1676682957" class="t"><rect height="40" width="129.39" class="th"></rect><text x="13" y="25" class="tht">dept_manager</text><rect height="60" width="129.39" class="t-bg" y="40"></rect><text x="13" y="61" class="tf fk">dept_no<tspan x="116.38999999999999" class="ty">varchar</tspan></text><text x="13" y="86" class="tf fk">emp_no<tspan x="116.38999999999999" class="ty">integer</tspan></text></svg><svg width="126.06" height="125" x="496.67" y="48.89" id="h2472833127" class="t"><rect height="40" width="126.06" class="th"></rect><text x="13" y="25" class="tht">salaries</text><rect height="85" width="126.06" class="t-bg" y="40"></rect><text x="13" y="61" class="tf fk">emp_no<tspan x="113.06" class="ty">integer</tspan></text><text x="13" y="86" class="tf">salary<tspan x="113.06" class="ty">integer</tspan></text><text x="13" y="111" class="tf">...</text></svg><svg width="137.38" height="125" x="521.67" y="333.33" id="h311790747" class="t"><rect height="40" width="137.38" class="th"></rect><text x="13" y="25" class="tht">titles</text><rect height="85" width="137.38" class="t-bg" y="40"></rect><text x="13" y="61" class="tf pk">title_id<tspan x="124.38" class="ty">integer</tspan></text><path d="M7,14A2,2 0 0,1 5,12A2,2 0 0,1 7,10A2,2 0 0,1 9,12A2,2 0 0,1 7,14M12.65,10C11.83,7.67 9.61,6 7, 6A6, 6 0 0, 0 1, 12A6, 6 0 0, 0 7, 18C9.61, 18 11.83, 16.33 12.65, 14H17V18H21V14H23V10H12.65Z" class="i pk" transform="translate(67.68859375, 48) scale(0.65)"></path><text x="13" y="86" class="tf">title<tspan x="124.38" class="ty">varchar</tspan></text><text x="13" y="111" class="tf">...</text></svg><svg width="167.4" height="250" x="285.28" y="362.08" id="h1639608377" class="t"><rect height="40" width="167.4" class="th"></rect><text x="13" y="25" class="tht">employees</text><rect height="210" width="167.4" class="t-bg" y="40"></rect><text x="13" y="61" class="tf fk">emp_no<tspan x="154.4" class="ty">integer</tspan></text><text x="13" y="86" class="tf pk">emp_title_id<tspan x="154.4" class="ty">integer</tspan></text><path d="M7,14A2,2 0 0,1 5,12A2,2 0 0,1 7,10A2,2 0 0,1 9,12A2,2 0 0,1 7,14M12.65,10C11.83,7.67 9.61,6 7, 6A6, 6 0 0, 0 1, 12A6, 6 0 0, 0 7, 18C9.61, 18 11.83, 16.33 12.65, 14H17V18H21V14H23V10H12.65Z" class="i pk" transform="translate(97.70859375, 73) scale(0.65)"></path><text x="13" y="111" class="tf">birth_date<tspan x="154.4" class="ty">integer</tspan></text><text x="13" y="136" class="tf">first_name<tspan x="154.4" class="ty">varchar</tspan></text><text x="13" y="161" class="tf">last_name<tspan x="154.4" class="ty">varchar</tspan></text><text x="13" y="186" class="tf">sex<tspan x="154.4" class="ty">varchar</tspan></text><text x="13" y="211" class="tf">hire_date<tspan x="154.4" class="ty">integer</tspan></text><text x="13" y="236" class="tf">...</text></svg></g></g><text class="qdbd-link" x="10" y="20">www.quickdatabasediagrams.com</text></svg>